<svg width="50" height="50" viewBox="0 0 50 50" fill="none" xmlns="http://www.w3.org/2000/svg">
<path d="M3.125 3.125V45.3125C3.125 45.7269 3.28962 46.1243 3.58265 46.4174C3.87567 46.7104 4.2731 46.875 4.6875 46.875H46.875" stroke="#EB5757" stroke-width="3" stroke-linecap="round" stroke-linejoin="round"/>
<path d="M15.2344 21.875H11.3281C10.2494 21.875 9.375 22.7494 9.375 23.8281V38.6719C9.375 39.7506 10.2494 40.625 11.3281 40.625H15.2344C16.3131 40.625 17.1875 39.7506 17.1875 38.6719V23.8281C17.1875 22.7494 16.3131 21.875 15.2344 21.875Z" stroke="#EB5757" stroke-width="3" stroke-linecap="round" stroke-linejoin="round"/>
<path d="M29.2969 17.1875H25.3906C24.3119 17.1875 23.4375 18.0619 23.4375 19.1406V38.6719C23.4375 39.7506 24.3119 40.625 25.3906 40.625H29.2969C30.3756 40.625 31.25 39.7506 31.25 38.6719V19.1406C31.25 18.0619 30.3756 17.1875 29.2969 17.1875Z" stroke="#EB5757" stroke-width="3" stroke-linecap="round" stroke-linejoin="round"/>
<path d="M43.3242 10.9375H39.418C38.3393 10.9375 37.4648 11.8119 37.4648 12.8906V38.6719C37.4648 39.7506 38.3393 40.625 39.418 40.625H43.3242C44.4029 40.625 45.2773 39.7506 45.2773 38.6719V12.8906C45.2773 11.8119 44.4029 10.9375 43.3242 10.9375Z" stroke="#EB5757" stroke-width="3" stroke-linecap="round" stroke-linejoin="round"/>
</svg>
