<svg width="19" height="19" viewBox="0 0 19 19" fill="none" xmlns="http://www.w3.org/2000/svg">
<path d="M5.34375 17.2188C5.18628 17.2188 5.03526 17.1562 4.92391 17.0448C4.81256 16.9335 4.75 16.7825 4.75 16.625V14.25H3.85938C3.15099 14.2492 2.47185 13.9675 1.97094 13.4666C1.47004 12.9657 1.18829 12.2865 1.1875 11.5781V4.45312C1.18829 3.74474 1.47004 3.0656 1.97094 2.56469C2.47185 2.06379 3.15099 1.78204 3.85938 1.78125H15.1406C15.849 1.78204 16.5282 2.06379 17.0291 2.56469C17.53 3.0656 17.8117 3.74474 17.8125 4.45312V11.5781C17.8117 12.2865 17.53 12.9657 17.0291 13.4666C16.5282 13.9675 15.849 14.2492 15.1406 14.25H9.11926L5.72412 17.0811C5.61727 17.1699 5.48272 17.2186 5.34375 17.2188Z" fill="#EB5757"/>
</svg>
