<svg width="886" height="886" viewBox="0 0 886 886" fill="none" xmlns="http://www.w3.org/2000/svg">
<g clip-path="url(#clip0)">
<path d="M379.866 204.881C386.622 202.435 394.079 205.928 396.526 212.682L396.798 213.436C399.243 220.191 395.75 227.65 388.995 230.096C385.625 231.316 382.081 231.059 379.07 229.655C376.046 228.245 373.562 225.68 372.336 222.295L372.063 221.541C369.618 214.786 373.111 207.327 379.866 204.881Z" fill="#EB5757" fill-opacity="0.6"/>
<path d="M286.186 252.821C262.17 186.836 253.42 115.248 260.881 45.7937C261.411 40.8613 264.702 36.6576 269.366 34.9601C274.029 33.2626 279.251 34.3682 282.829 37.8052C322.551 75.9892 354.839 120.648 378.795 170.546C381.905 177.023 379.175 184.794 372.699 187.902C366.224 191.013 358.451 188.285 355.343 181.807C336.871 143.335 313.156 108.165 284.657 76.9367C280.057 191.015 321.22 304.106 398.071 388.539C399.782 347.368 395.606 306.223 385.593 265.869C383.863 258.897 388.113 251.842 395.085 250.112C402.06 248.379 409.114 252.63 410.843 259.604C423.893 312.193 427.587 366.054 421.825 419.691C421.764 420.255 421.658 420.807 421.528 421.351C423.65 426.997 425.791 432.635 427.959 438.261C432.925 397.356 444.39 357.02 461.879 319.513C486.529 266.653 523.164 219.335 567.824 182.675C571.693 179.5 577.039 178.825 581.574 180.94C586.11 183.055 589.031 187.585 589.084 192.588C589.709 250.366 577.009 308.844 552.36 361.705C528.505 412.861 493.427 458.823 450.71 494.96C463.842 526.403 477.702 557.512 492.265 588.251C497.725 544.632 510.027 501.641 528.683 461.633C555.288 404.58 594.826 353.513 643.028 313.947C646.896 310.772 652.243 310.098 656.778 312.212C661.313 314.327 664.234 318.857 664.288 323.861C664.962 386.218 651.257 449.331 624.653 506.384C599.933 559.397 564.038 607.238 520.408 645.49C535.983 676.016 552.268 706.139 569.236 735.821C573.926 698.797 584.384 662.313 600.221 628.351C622.912 579.69 656.638 536.13 697.753 502.382C701.621 499.206 706.967 498.532 711.504 500.647C716.04 502.763 718.96 507.292 719.013 512.296C719.589 565.484 707.899 619.32 685.208 667.981C664.485 712.422 634.538 752.581 598.185 784.924C606.698 798.936 615.358 812.847 624.18 826.642C628.051 832.694 626.282 840.737 620.23 844.608C616.336 847.1 611.614 847.256 607.712 845.436C605.551 844.428 603.642 842.816 602.263 840.659C593.173 826.446 584.254 812.11 575.489 797.669C522.935 797.941 469.821 786.283 421.755 763.869C373.093 741.178 329.533 707.452 295.783 666.338C292.608 662.47 291.934 657.124 294.049 652.587C296.164 648.051 300.694 645.131 305.697 645.077C358.887 644.502 412.721 656.193 461.384 678.885C486.38 690.541 510.015 705.127 531.682 722.113C519.8 700.635 508.268 678.94 497.098 657.04C440.986 656.887 384.387 644.222 333.083 620.299C280.223 595.65 232.906 559.015 196.246 514.353C193.07 510.486 192.396 505.139 194.511 500.603C196.627 496.066 201.156 493.146 206.16 493.093C263.936 492.468 322.415 505.166 375.275 529.816C406.513 544.382 435.813 563.137 462.124 585.257C450.672 560.639 439.665 535.792 429.117 510.734C390.08 510.513 351.311 504.39 313.776 492.488C313.229 492.314 312.702 492.108 312.195 491.871C306.361 489.151 303.311 482.457 305.309 476.156C307.48 469.308 314.792 465.517 321.639 467.688C349.03 476.375 377.124 481.77 405.481 483.809C343.359 419.885 258.34 380.24 169.441 373.741C188.92 393.833 210.729 411.641 234.548 426.883C240.599 430.755 242.364 438.8 238.493 444.85C234.62 450.902 226.58 452.654 220.525 448.796C185.971 426.683 155.356 399.52 129.533 368.061C126.358 364.193 125.683 358.847 127.799 354.31C129.914 349.774 134.443 346.854 139.447 346.8C197.223 346.175 255.702 358.875 308.562 383.524C342.764 399.473 374.642 420.446 402.818 445.358C399.816 437.537 396.849 429.701 393.934 421.843C346.42 374.449 309.247 316.183 286.186 252.821ZM593.495 753.712C650.101 697.73 685.428 621.972 691.926 542.625C635.32 598.606 599.994 674.363 593.495 753.712ZM336.022 672.164C392.004 728.771 467.762 764.097 547.109 770.595C491.127 713.989 415.369 678.662 336.022 672.164ZM515.875 614.373C587.05 546.182 630.968 452 637.455 353.644C566.281 421.836 522.363 516.018 515.875 614.373ZM236.181 520.038C298.297 583.948 383.284 623.578 472.169 630.081C410.053 566.169 325.067 526.54 236.181 520.038ZM452.096 458.602C516 396.492 555.632 311.493 562.138 222.615C498.235 284.73 458.597 369.726 452.096 458.602Z" fill="#EB5757" fill-opacity="0.6"/>
<path d="M273.33 448.519L273.819 448.755C280.286 451.881 282.995 459.66 279.867 466.128C276.766 472.541 269.096 475.256 262.663 472.256C262.608 472.23 262.55 472.203 262.495 472.176L262.006 471.941C255.539 468.815 252.829 461.037 255.957 454.569C259.085 448.1 266.886 445.36 273.33 448.519Z" fill="#EB5757" fill-opacity="0.6"/>
</g>
<defs>
<clipPath id="clip0">
<rect width="666" height="666" fill="white" transform="matrix(-0.906308 -0.422618 -0.422618 0.906308 885.065 281.464)"/>
</clipPath>
</defs>
</svg>
