<svg width="50" height="50" viewBox="0 0 50 50" fill="none" xmlns="http://www.w3.org/2000/svg">
<path d="M32.8125 1.5625H17.1875C14.5987 1.5625 12.5 3.66117 12.5 6.25V43.75C12.5 46.3388 14.5987 48.4375 17.1875 48.4375H32.8125C35.4013 48.4375 37.5 46.3388 37.5 43.75V6.25C37.5 3.66117 35.4013 1.5625 32.8125 1.5625Z" stroke="#EB5757" stroke-width="3" stroke-linecap="round" stroke-linejoin="round"/>
<path d="M17.1875 1.5625H19.5312C19.7385 1.5625 19.9372 1.64481 20.0837 1.79132C20.2302 1.93784 20.3125 2.13655 20.3125 2.34375C20.3125 2.75815 20.4771 3.15558 20.7701 3.4486C21.0632 3.74163 21.4606 3.90625 21.875 3.90625H28.125C28.5394 3.90625 28.9368 3.74163 29.2299 3.4486C29.5229 3.15558 29.6875 2.75815 29.6875 2.34375C29.6875 2.13655 29.7698 1.93784 29.9163 1.79132C30.0628 1.64481 30.2615 1.5625 30.4688 1.5625H32.8125" stroke="#EB5757" stroke-width="3" stroke-linecap="round" stroke-linejoin="round"/>
</svg>
