<svg width="50" height="50" viewBox="0 0 50 50" fill="none" xmlns="http://www.w3.org/2000/svg">
<path d="M31.8457 22.6465L27.207 30.0196C27.0173 30.2826 26.7865 30.5134 26.5235 30.7032C25.8885 31.1461 25.1045 31.3208 24.3416 31.1893C23.5786 31.0577 22.8983 30.6306 22.4484 30.0007C21.9984 29.3707 21.815 28.5886 21.938 27.8243C22.061 27.06 22.4805 26.375 23.1055 25.918L30.4785 21.2793C30.6461 21.1625 30.8455 21.0999 31.0498 21.0999C31.2541 21.0999 31.4535 21.1625 31.6211 21.2793C31.8316 21.4313 31.9734 21.6604 32.0155 21.9166C32.0575 22.1728 31.9965 22.4352 31.8457 22.6465Z" fill="#EB5757"/>
<path d="M25 6.25C12.9199 6.25 3.12502 16.0352 3.12502 28.1152C3.11761 33.4598 5.07428 38.6208 8.62307 42.6172C8.73049 42.7344 8.82815 42.8516 8.93557 42.959C9.16666 43.2092 9.44719 43.4086 9.75939 43.5448C10.0716 43.6809 10.4087 43.7507 10.7492 43.7498C11.0898 43.7489 11.4265 43.6772 11.738 43.5394C12.0494 43.4016 12.3289 43.2006 12.5586 42.9492C14.1421 41.2284 16.0654 39.8547 18.2069 38.9151C20.3484 37.9755 22.6615 37.4904 25 37.4904C27.3386 37.4904 29.6517 37.9755 31.7932 38.9151C33.9347 39.8547 35.8579 41.2284 37.4414 42.9492C37.6712 43.2006 37.9506 43.4016 38.2621 43.5394C38.5735 43.6772 38.9102 43.7489 39.2508 43.7498C39.5914 43.7507 39.9285 43.6809 40.2407 43.5448C40.5529 43.4086 40.8334 43.2092 41.0645 42.959L41.377 42.6172C44.9258 38.6208 46.8824 33.4598 46.875 28.1152C46.875 16.0352 37.0801 6.25 25 6.25Z" stroke="#EB5757" stroke-width="3" stroke-linecap="round" stroke-linejoin="round"/>
<path d="M33.8389 19.2861L36.0488 17.0762M25 12.5V15.625V12.5ZM40.625 28.125H37.5H40.625ZM12.5 28.125H9.375H12.5ZM16.1611 19.2861L13.9512 17.0762L16.1611 19.2861Z" stroke="#EB5757" stroke-width="3" stroke-miterlimit="10" stroke-linecap="round"/>
</svg>
