<svg width="568" height="517" viewBox="0 0 568 517" fill="none" xmlns="http://www.w3.org/2000/svg">
<g opacity="0.5">
<path opacity="0.5" d="M414.511 35.7673H158.977V388.888H414.511V35.7673Z" fill="url(#paint0_linear)"/>
</g>
<path d="M411.26 38.3686H162.228V383.686H411.26V38.3686Z" fill="white"/>
<path d="M348.839 29.2511H225.299V59.1786H348.839V29.2511Z" fill="url(#paint1_linear)"/>
<path d="M287.069 0C277.53 0 269.799 7.92083 269.799 17.6886C269.799 27.4563 277.53 35.3771 287.069 35.3771C296.608 35.3771 304.339 27.4563 304.339 17.6886C304.339 7.92083 296.608 0 287.069 0ZM287.069 27.892C285.041 27.945 283.043 27.392 281.33 26.3035C279.618 25.2151 278.269 23.6407 277.456 21.7815C276.643 19.9224 276.402 17.863 276.765 15.8664C277.128 13.8699 278.078 12.027 279.494 10.5733C280.909 9.11949 282.726 8.12089 284.712 7.70509C286.698 7.2893 288.763 7.47519 290.642 8.239C292.522 9.00282 294.131 10.3099 295.265 11.9931C296.398 13.6763 297.004 15.6593 297.004 17.6886C297.035 20.3581 296.007 22.9312 294.145 24.8438C292.283 26.7564 289.738 27.8526 287.069 27.892V27.892Z" fill="url(#paint2_linear)"/>
<path d="M347.539 29.2642H226.599V57.878H347.539V29.2642Z" fill="#EB5757"/>
<path d="M287.069 1.30063C283.726 1.30063 280.457 2.29228 277.677 4.15017C274.897 6.00806 272.73 8.64876 271.45 11.7383C270.171 14.8279 269.836 18.2276 270.488 21.5074C271.141 24.7873 272.751 27.8 275.115 30.1647C277.479 32.5293 280.492 34.1397 283.771 34.7921C287.05 35.4445 290.449 35.1097 293.539 33.8299C296.628 32.5502 299.268 30.383 301.126 27.6025C302.983 24.8219 303.975 21.5529 303.975 18.2088C303.975 13.7245 302.194 9.42382 299.023 6.25292C295.853 3.08202 291.553 1.30063 287.069 1.30063V1.30063ZM287.069 27.9635C285.14 27.9635 283.254 27.3914 281.651 26.3196C280.047 25.2477 278.797 23.7242 278.058 21.9418C277.32 20.1593 277.127 18.198 277.503 16.3058C277.88 14.4135 278.809 12.6754 280.173 11.3112C281.537 9.94695 283.274 9.01791 285.166 8.64152C287.058 8.26514 289.019 8.45831 290.802 9.19662C292.584 9.93493 294.107 11.1852 295.179 12.7894C296.25 14.3935 296.822 16.2795 296.822 18.2088C296.822 20.7959 295.795 23.2771 293.966 25.1064C292.137 26.9358 289.656 27.9635 287.069 27.9635Z" fill="#EB5757"/>
<path d="M227.249 94.2956H173.932V147.621H227.249V94.2956Z" fill="url(#paint3_linear)"/>
<path d="M227.431 199.972H174.114V253.297H227.431V199.972Z" fill="url(#paint4_linear)"/>
<path d="M227.614 304.347H174.296V357.673H227.614V304.347Z" fill="url(#paint5_linear)"/>
<path d="M225.299 96.2465H175.883V145.67H225.299V96.2465Z" fill="#69F0AE"/>
<path d="M225.299 200.947H175.883V250.371H225.299V200.947Z" fill="#EB5757"/>
<path d="M225.299 305.648H175.883V355.072H225.299V305.648Z" fill="#EB5757"/>
<path d="M325.542 111.503H257.809V116.231H325.542V111.503Z" fill="#E0E0E0"/>
<path d="M369.646 118.598H257.809V123.326H369.646V118.598Z" fill="#E0E0E0"/>
<path d="M361.772 125.686H257.809V130.414H361.772V125.686Z" fill="#E0E0E0"/>
<path d="M325.542 216.204H257.809V220.931H325.542V216.204Z" fill="#E0E0E0"/>
<path d="M369.646 223.298H257.809V228.026H369.646V223.298Z" fill="#E0E0E0"/>
<path d="M361.772 230.387H257.809V235.115H361.772V230.387Z" fill="#E0E0E0"/>
<path d="M325.542 320.904H257.809V325.632H325.542V320.904Z" fill="#E0E0E0"/>
<path d="M369.646 327.999H257.809V332.727H369.646V327.999Z" fill="#E0E0E0"/>
<path d="M361.772 335.088H257.809V339.815H361.772V335.088Z" fill="#E0E0E0"/>
<path d="M189.375 118.013L198.348 126.246L211.059 107.549L215.546 111.288L198.348 133.724L185.636 119.515L189.375 118.013Z" fill="url(#paint6_linear)"/>
<path d="M190.837 118.357L198.64 125.511L209.694 109.253L213.595 112.504L198.64 132.014L187.586 119.658L190.837 118.357Z" fill="white"/>
<path d="M190.837 223.708L198.64 230.862L209.694 214.604L213.595 217.855L198.64 237.365L187.586 225.009L190.837 223.708Z" fill="white"/>
<path d="M190.837 329.059L198.64 336.213L209.694 319.955L213.595 323.206L198.64 342.716L187.586 330.36L190.837 329.059Z" fill="white"/>
<g opacity="0.5">
<path opacity="0.5" d="M423.289 228.26H427.19" stroke="#69F0AE" stroke-width="5" stroke-miterlimit="10"/>
<path opacity="0.5" d="M434.693 228.26H520.97" stroke="#69F0AE" stroke-width="5" stroke-miterlimit="10" stroke-dasharray="11.54 11.54"/>
<path opacity="0.5" d="M524.722 228.26H528.623V224.359" stroke="#69F0AE" stroke-width="5" stroke-miterlimit="10"/>
<path opacity="0.5" d="M528.623 216.912V146.145" stroke="#69F0AE" stroke-width="5" stroke-miterlimit="10" stroke-dasharray="11.45 11.45"/>
<path opacity="0.5" d="M528.623 142.419V138.517" stroke="#69F0AE" stroke-width="5" stroke-miterlimit="10"/>
</g>
<path opacity="0.5" d="M150.524 118.682H63.3958V200.622" stroke="#69F0AE" stroke-width="5" stroke-miterlimit="10" stroke-dasharray="12 12"/>
<path opacity="0.5" d="M200.591 397.667V444.49H330.633" stroke="#69F0AE" stroke-width="5" stroke-miterlimit="10" stroke-dasharray="12 12"/>
<g opacity="0.5">
<path opacity="0.5" d="M568 69.6422L517.894 27.3132L468.569 69.5511L468.127 69.304V69.6422H467.789L468.127 69.8308V69.9803V124.834V125.511H567.662L567.057 125.173H568V69.6422Z" fill="url(#paint7_linear)"/>
</g>
<path d="M566.011 123.235H470.429V69.9088L517.895 29.2642L566.011 69.9088V123.235Z" fill="white"/>
<path d="M469.779 69.9088L517.244 96.5717L565.36 69.9088" fill="#E0E0E0"/>
<g opacity="0.5">
<path opacity="0.5" d="M518.233 95.9019L488.96 114.455V44.8717H546.829V80.2618L518.233 95.9019Z" fill="url(#paint8_linear)"/>
</g>
<path d="M518.22 96.2465L490.261 114.455V46.1723H545.529V80.8991L518.22 96.2465Z" fill="#FAFAFA"/>
<path opacity="0.05" d="M470.104 122.909H565.685L470.104 69.5836V122.909Z" fill="black"/>
<path d="M470.104 123.56H565.685L470.104 70.234V123.56Z" fill="#F5F5F5"/>
<path d="M537.726 56.5774H497.413V59.1786H537.726V56.5774Z" fill="white"/>
<path d="M537.726 61.7799H497.413V64.3811H537.726V61.7799Z" fill="white"/>
<path d="M537.726 66.9824H497.413V69.5836H537.726V66.9824Z" fill="#EB5757"/>
<path d="M537.726 72.1849H497.413V74.7862H537.726V72.1849Z" fill="white"/>
<path d="M537.726 77.3874H497.413V79.9887H537.726V77.3874Z" fill="#EB5757"/>
<path opacity="0.05" d="M545.529 81.2893V79.9887L517.088 95.7978L517.862 96.227L545.529 81.2893Z" fill="black"/>
<g opacity="0.5">
<path opacity="0.5" d="M464.883 403.195H351.778V517H464.883V403.195Z" fill="url(#paint9_linear)"/>
</g>
<path d="M462.301 405.796H354.366V514.399H462.301V405.796Z" fill="#F5F5F5"/>
<path d="M456.45 409.048H361.519V492.288H456.45V409.048Z" fill="white"/>
<path d="M456.45 465.625C430.214 465.625 408.984 458.933 408.984 450.668C382.748 450.668 361.519 456.488 361.519 463.674V494.889H456.45V465.625Z" fill="#E0E0E0"/>
<path d="M440.845 437.011C446.231 437.011 450.598 432.644 450.598 427.257C450.598 421.869 446.231 417.502 440.845 417.502C435.458 417.502 431.091 421.869 431.091 427.257C431.091 432.644 435.458 437.011 440.845 437.011Z" fill="#EB5757"/>
<g opacity="0.5">
<path opacity="0.5" d="M132.643 207.938H0V301.908H132.643V207.938Z" fill="url(#paint10_linear)"/>
</g>
<path d="M128.742 210.702H3.90137V299.145H128.742V210.702Z" fill="white"/>
<path d="M68.8899 233.034C67.8462 233.036 66.8037 233.105 65.7689 233.242L68.8899 257.095L44.8905 255.496C44.858 256.022 44.832 256.556 44.832 257.095C44.832 261.854 46.243 266.506 48.8865 270.463C51.53 274.42 55.2874 277.504 59.6834 279.325C64.0794 281.147 68.9166 281.623 73.5834 280.695C78.2501 279.766 82.5368 277.475 85.9014 274.109C89.266 270.744 91.5572 266.457 92.4855 261.79C93.4138 257.122 92.9374 252.284 91.1165 247.887C89.2956 243.491 86.2121 239.733 82.2558 237.089C78.2995 234.445 73.6481 233.034 68.8899 233.034V233.034Z" fill="#E0E0E0"/>
<path d="M60.5673 228.69C55.0513 229.413 49.9563 232.025 46.1496 236.083C42.3429 240.14 40.0598 245.392 39.689 250.943L63.6883 252.543L60.5673 228.69Z" fill="#EB5757"/>
<defs>
<linearGradient id="paint0_linear" x1="286.744" y1="388.888" x2="286.744" y2="35.7673" gradientUnits="userSpaceOnUse">
<stop stop-color="#808080" stop-opacity="0.25"/>
<stop offset="0.54" stop-color="#808080" stop-opacity="0.12"/>
<stop offset="1" stop-color="#808080" stop-opacity="0.1"/>
</linearGradient>
<linearGradient id="paint1_linear" x1="54768.4" y1="2752.65" x2="54768.4" y2="1375.39" gradientUnits="userSpaceOnUse">
<stop stop-color="#808080" stop-opacity="0.25"/>
<stop offset="0.54" stop-color="#808080" stop-opacity="0.12"/>
<stop offset="1" stop-color="#808080" stop-opacity="0.1"/>
</linearGradient>
<linearGradient id="paint2_linear" x1="21156.4" y1="3781.46" x2="21156.4" y2="1857.3" gradientUnits="userSpaceOnUse">
<stop stop-color="#808080" stop-opacity="0.25"/>
<stop offset="0.54" stop-color="#808080" stop-opacity="0.12"/>
<stop offset="1" stop-color="#808080" stop-opacity="0.1"/>
</linearGradient>
<linearGradient id="paint3_linear" x1="16622.4" y1="12199.3" x2="16622.4" y2="7826.54" gradientUnits="userSpaceOnUse">
<stop stop-color="#808080" stop-opacity="0.25"/>
<stop offset="0.54" stop-color="#808080" stop-opacity="0.12"/>
<stop offset="1" stop-color="#808080" stop-opacity="0.1"/>
</linearGradient>
<linearGradient id="paint4_linear" x1="16637.5" y1="20970.3" x2="16637.5" y2="16597.6" gradientUnits="userSpaceOnUse">
<stop stop-color="#808080" stop-opacity="0.25"/>
<stop offset="0.54" stop-color="#808080" stop-opacity="0.12"/>
<stop offset="1" stop-color="#808080" stop-opacity="0.1"/>
</linearGradient>
<linearGradient id="paint5_linear" x1="16652.6" y1="29633.5" x2="16652.6" y2="25260.8" gradientUnits="userSpaceOnUse">
<stop stop-color="#808080" stop-opacity="0.25"/>
<stop offset="0.54" stop-color="#808080" stop-opacity="0.12"/>
<stop offset="1" stop-color="#808080" stop-opacity="0.1"/>
</linearGradient>
<linearGradient id="paint6_linear" x1="9412.81" y1="5489.95" x2="9412.81" y2="4436.14" gradientUnits="userSpaceOnUse">
<stop stop-color="#808080" stop-opacity="0.25"/>
<stop offset="0.54" stop-color="#808080" stop-opacity="0.12"/>
<stop offset="1" stop-color="#808080" stop-opacity="0.1"/>
</linearGradient>
<linearGradient id="paint7_linear" x1="80285.6" y1="18979.4" x2="80285.6" y2="4151.61" gradientUnits="userSpaceOnUse">
<stop stop-color="#808080" stop-opacity="0.25"/>
<stop offset="0.54" stop-color="#808080" stop-opacity="0.12"/>
<stop offset="1" stop-color="#808080" stop-opacity="0.1"/>
</linearGradient>
<linearGradient id="paint8_linear" x1="46581.6" y1="12291.6" x2="46581.6" y2="4846.14" gradientUnits="userSpaceOnUse">
<stop stop-color="#808080" stop-opacity="0.25"/>
<stop offset="0.54" stop-color="#808080" stop-opacity="0.12"/>
<stop offset="1" stop-color="#808080" stop-opacity="0.1"/>
</linearGradient>
<linearGradient id="paint9_linear" x1="71381.4" y1="90878.2" x2="71381.4" y2="70962.3" gradientUnits="userSpaceOnUse">
<stop stop-color="#808080" stop-opacity="0.25"/>
<stop offset="0.54" stop-color="#808080" stop-opacity="0.12"/>
<stop offset="1" stop-color="#808080" stop-opacity="0.1"/>
</linearGradient>
<linearGradient id="paint10_linear" x1="13529.6" y1="43833.7" x2="13529.6" y2="30255" gradientUnits="userSpaceOnUse">
<stop stop-color="#808080" stop-opacity="0.25"/>
<stop offset="0.54" stop-color="#808080" stop-opacity="0.12"/>
<stop offset="1" stop-color="#808080" stop-opacity="0.1"/>
</linearGradient>
</defs>
</svg>
